<?xml version="1.0" encoding="UTF-8"?>
<svg width="512px" height="512px" viewBox="0 0 512 512" version="1.1" xmlns="http://www.w3.org/2000/svg" xmlns:xlink="http://www.w3.org/1999/xlink">
    <!-- Generator: Sketch 52.3 (67297) - http://www.bohemiancoding.com/sketch -->
    <title>sticker</title>
    <desc>Created with Sketch.</desc>
    <g id="Page-1" stroke="none" stroke-width="1" fill="none" fill-rule="evenodd">
        <g id="sticker" fill="#000000">
            <path d="M262.213,0 L256,0 C187.887,0 123.673,26.702 75.188,75.188 C26.702,123.673 0,187.887 0,256 C0,324.113 26.702,388.327 75.188,436.812 C123.673,485.298 187.887,512 256,512 C324.113,512 388.327,485.298 436.813,436.812 C485.298,388.327 512,324.113 512,256 L512,249.787 L262.213,0 Z M457.291,237.504 C364.438,220.979 291.021,147.562 274.496,54.708 L457.291,237.504 Z M256,482 C131.383,482 30,380.617 30,256 C30,136.266 123.61,37.997 241.481,30.479 C244.576,82.197 263.133,131.095 294.968,171.838 C311.241952,189.704369 323.919285,202.425036 333,210 C342.697507,218.089481 358.187507,228.865481 379.47,242.328 C410.925,258.72 445.538,268.365 481.521,270.518 C474.004,388.39 375.735,482 256,482 Z" id="Shape" fill-rule="nonzero"></path>
            <path d="M244.3,296 C244.3,304.800044 242.700016,312.499967 239.5,319.1 C236.299984,325.700033 231.966694,331.233311 226.5,335.7 C221.033306,340.166689 214.700036,343.499989 207.5,345.7 C200.299964,347.900011 192.70004,349 184.7,349 C176.03329,349 168.100036,347.866678 160.9,345.6 C153.699964,343.333322 147.466693,340.166687 142.2,336.1 C136.933307,332.033313 132.800015,327.100029 129.8,321.3 C126.799985,315.499971 125.233334,309.000036 125.1,301.8 C125.1,300.599994 125.533329,299.566671 126.4,298.7 C127.266671,297.833329 128.299994,297.4 129.5,297.4 L155.1,297.4 C157.633346,297.4 159.299996,297.799996 160.1,298.6 C160.900004,299.400004 161.699996,300.933322 162.5,303.2 C164.100008,307.733356 166.599983,311.166655 170,313.5 C173.400017,315.833345 178.299968,317 184.7,317 C192.300038,317 197.999981,315.100019 201.8,311.3 C205.600019,307.499981 207.5,302.000036 207.5,294.8 L207.5,239 L139.1,239 C137.633326,239 136.366672,238.466672 135.3,237.4 C134.233328,236.333328 133.7,235.066674 133.7,233.6 L133.7,212.4 C133.7,210.933326 134.233328,209.666672 135.3,208.6 C136.366672,207.533328 137.633326,207 139.1,207 L238.9,207 C240.366674,207 241.633328,207.533328 242.7,208.6 C243.766672,209.666672 244.3,210.933326 244.3,212.4 L244.3,296 Z M311.8,204 C315.8,204 325.9,215 338.5,225 C348.677097,233.077061 359.668223,239.931923 371.473378,245.564587 L371.473378,245.564588 C371.97183,245.802417 372.183107,246.399292 371.945277,246.897744 C371.789823,247.223552 371.470837,247.440283 371.110677,247.464805 L351.5,248.8 C349.633324,248.8 348.133339,248.533336 347,248 C345.866661,247.466664 344.700006,246.666672 343.5,245.6 C343.099998,245.199998 342.466671,244.533338 341.6,243.6 C340.733329,242.666662 339.500008,241.700005 337.9,240.7 C336.299992,239.699995 334.300012,238.833337 331.9,238.1 C329.499988,237.366663 326.566684,237 323.1,237 C320.566654,237 318.133345,237.166665 315.8,237.5 C313.466655,237.833335 311.400009,238.366663 309.6,239.1 C307.799991,239.833337 306.333339,240.86666 305.2,242.2 C304.066661,243.53334 303.5,245.19999 303.5,247.2 C303.5,249.20001 304.133327,250.86666 305.4,252.2 C306.666673,253.53334 308.799985,254.766661 311.8,255.9 C314.800015,257.033339 318.766642,258.133328 323.7,259.2 C328.633358,260.266672 334.76663,261.533326 342.1,263 C349.43337,264.466674 355.833306,266.333322 361.3,268.6 C366.766694,270.866678 371.333315,273.699983 375,277.1 C378.666685,280.500017 381.399991,284.499977 383.2,289.1 C385.000009,293.700023 385.9,299.133302 385.9,305.4 C385.9,312.200034 384.366682,318.26664 381.3,323.6 C378.233318,328.93336 373.933361,333.499981 368.4,337.3 C362.866639,341.100019 356.333371,343.99999 348.8,346 C341.266629,348.00001 333.033378,349 324.1,349 C315.033288,349 306.766704,347.800012 299.3,345.4 C291.833296,342.999988 285.400027,339.833353 280,335.9 C274.599973,331.966647 270.366682,327.533358 267.3,322.6 C264.233318,317.666642 262.633334,312.666692 262.5,307.6 C262.5,306.399994 262.933329,305.366671 263.8,304.5 C264.666671,303.633329 265.633328,303.2 266.7,303.2 L292.9,303.2 C294.766676,303.2 296.233328,303.433331 297.3,303.9 C298.366672,304.366669 299.433328,305.066662 300.5,306 C301.033336,306.533336 301.833328,307.399994 302.9,308.6 C303.966672,309.800006 305.399991,311.033327 307.2,312.3 C309.000009,313.566673 311.266653,314.666662 314,315.6 C316.733347,316.533338 320.09998,317 324.1,317 C331.166702,317 337.066643,316.233341 341.8,314.7 C346.533357,313.166659 348.9,310.40002 348.9,306.4 C348.9,304.39999 348.033342,302.73334 346.3,301.4 C344.566658,300.06666 341.966684,298.833339 338.5,297.7 C335.033316,296.566661 330.600027,295.466672 325.2,294.4 C319.799973,293.333328 313.43337,292.000008 306.1,290.4 C292.366598,287.466652 282.333365,282.566701 276,275.7 C269.666635,268.833299 266.5,259.666724 266.5,248.2 C266.5,242.466638 267.799987,237.000026 270.4,231.8 C273.000013,226.599974 276.766642,222.00002 281.7,218 C284.988905,215.33332 291.255572,211.666653 300.5,207 C305.366667,205 309.133333,204 311.8,204 Z" id="JS"></path>
        </g>
    </g>
</svg>